#!OML:ASF F:\VICON\USERDATA\INSTALL\rory3\rory3.ASF
:FULLY-SPECIFIED
:DEGREES
254
root -1.63263 15.5383 -5.06044 -160.925 -0.273798 -181.613
lowerback 1.76467 -0.622545 -2.96762
upperback -0.248679 -0.905084 -0.165817
thorax -1.20124 -0.435943 1.51797
lowerneck -22.3454 0.0248773 0.00242553
upperneck 17.5096 -0.0417266 0.547364
head 9.17981 0.063438 0.186147
rclavicle 9.26834e-015 -5.06901e-015
rhumerus -20.5155 -51.1586 -66.1329
rradius 9.75824
rwrist 13.6788
rhand -18.4155 14.5207
rfingers 7.12502
rthumb 7.86936 -15.3128
lclavicle 9.26834e-015 -5.06901e-015
lhumerus -11.968 20.3418 84.2388
lradius 11.326
lwrist -58.9289
lhand -9.3253 19.9168
lfingers 7.12502
lthumb 16.6333 49.2241
rfemur -75.0725 0.589465 16.0038
rtibia 39.1837
rfoot 8.00041 -33.8176
rtoes 33.604
lfemur -11.8431 1.95627 -31.557
ltibia 37.2154
lfoot -40.102 18.8999
ltoes -24.0834
255
root -1.61887 15.5166 -5.2774 -160.8 -0.60557 -181.828
lowerback 1.31555 -0.781291 -2.95738
upperback -0.601751 -1.10573 -0.0763294
thorax -1.30033 -0.530599 1.60526
lowerneck -22.6469 0.000459045 -0.48014
upperneck 18.1229 0.0590104 0.704382
head 9.44661 0.10069 0.336478
rclavicle 2.68359e-015 2.23633e-015
rhumerus -18.5496 -48.5341 -70.1432
rradius 10.4492
rwrist 10.5824
rhand -17.9526 15.904
rfingers 7.12502
rthumb 8.31612 -13.9124
lclavicle 2.68359e-015 2.23633e-015
lhumerus -10.5177 14.3023 88.257
lradius 12.2708
lwrist -52.4993
lhand -9.6366 20.2168
lfingers 7.12502
lthumb 16.3336 49.5489
rfemur -75.0992 -1.16391 18.4921
rtibia 40.2501
rfoot 15.0468 -29.9977
rtoes 27.001
lfemur -11.0372 1.83487 -31.5731
ltibia 36.8717
lfoot -38.461 21.1194
ltoes -29.8916
256
root -1.60464 15.4845 -5.50868 -160.813 -1.02473 -181.922
lowerback 0.688534 -0.905264 -2.78658
upperback -0.916711 -1.2552 -0.0139306
thorax -1.26642 -0.605262 1.56875
lowerneck -22.0405 -0.0344572 -0.319597
upperneck 18.1398 0.0315369 0.433087
head 9.34625 0.0716384 0.211892
rclavicle 5.09386e-015 2.01269e-015
rhumerus -16.7343 -45.6099 -73.9889
rradius 10.768
rwrist 7.57823
rhand -17.4269 18.1803
rfingers 7.12502
rthumb 8.82335 -11.6153
lclavicle 5.09386e-015 2.01269e-015
lhumerus -9.39732 8.09266 91.687
lradius 13.4743
lwrist -46.2905
lhand -9.59739 20.533
lfingers 7.12502
lthumb 16.3713 49.8621
rfemur -75.0768 -2.62412 20.6636
rtibia 41.669
rfoot 18.1433 -27.7021
rtoes 27.0628
lfemur -9.8181 1.31678 -31.4419
ltibia 36.4059
lfoot -37.8361 21.806
ltoes -32.1579
257
root -1.57573 15.4455 -5.74945 -160.556 -1.39076 -182.278
lowerback -0.367251 -0.953078 -3.06909
upperback -1.43663 -1.31215 -0.0443412
thorax -1.20014 -0.634038 1.6824
lowerneck -21.2468 -0.148837 -0.336888
upperneck 18.4903 -0.100335 0.478921
head 9.32931 0.026908 0.214076
rclavicle -3.75672e-015 5.5287e-015
rhumerus -14.9838 -40.2794 -78.0952
rradius 11.5965
rwrist 1.57808
rhand -17.3098 18.5642
rfingers 7.12502
rthumb 8.93641 -11.2266
lclavicle -3.75672e-015 5.5287e-015
lhumerus -8.67537 1.03416 94.733
lradius 14.8606
lwrist -39.588
lhand -9.623 20.9029
lfingers 7.12502
lthumb 16.3467 50.2339
rfemur -75.3268 -3.42249 21.6826
rtibia 43.2936
rfoot 15.0696 -29.6872
rtoes 40.1835
lfemur -8.85084 0.55209 -31.5885
ltibia 35.8854
lfoot -37.28 22.3699
ltoes -34.2416
258
root -1.58029 15.4244 -5.98736 -160.255 -2.50779 -182.196
lowerback -0.834232 -1.29238 -2.26695
upperback -2.39459 -1.79589 0.152057
thorax -1.91477 -0.882583 1.44049
lowerneck -20.699 -0.159476 -0.687877
upperneck 19.6429 0.0516551 0.5435
head 9.63546 0.107226 0.322569
rclavicle -2.75814e-015 -2.68359e-015
rhumerus -13.699 -32.2177 -82.1002
rradius 13.2738
rwrist -7.56285
rhand -17.9839 16.5778
rfingers 7.12502
rthumb 8.28592 -13.2397
lclavicle -2.75814e-015 -2.68359e-015
lhumerus -8.52241 -3.66407 97.4374
lradius 16.1473
lwrist -34.5501
lhand -10.5978 20.8292
lfingers 7.12502
lthumb 15.4079 50.235
rfemur -75.3789 -5.13271 23.4842
rtibia 44.8881
rfoot 12.8261 -28.6349
rtoes 47.0228
lfemur -7.94053 -0.956488 -31.2078
ltibia 35.4477
lfoot -36.5407 23.2901
ltoes -36.2612
259
root -1.53119 15.3893 -6.24705 -159.698 -2.61133 -182.333
lowerback -2.16369 -1.30175 -2.83634
upperback -2.64541 -1.79596 0.395967
thorax -1.40453 -0.886878 1.97842
lowerneck -22.0564 -0.265171 -1.06042
upperneck 20.9469 0.0589712 0.580631
head 10.3493 0.0955382 0.406468
rclavicle -1.02623e-014 0
rhumerus -11.3629 -29.0872 -85.2173
rradius 13.6933
rwrist -10.9841
rhand -16.9015 16.7676
rfingers 7.12502
rthumb 9.33042 -13.0059
lclavicle -1.02623e-014 0
lhumerus -6.94932 -8.11997 99.8384
lradius 17.5355
lwrist -29.6432
lhand -11.4484 20.704
lfingers 7.12502
lthumb 14.5885 50.171
rfemur -75.4208 -4.40863 23.1732
rtibia 46.3698
rfoot 11.3554 -26.3986
rtoes 47.84
lfemur -7.37406 -2.01603 -31.1364
ltibia 35.0529
lfoot -36.5529 22.9486
ltoes -35.0078
260
root -1.49713 15.3655 -6.50518 -159.287 -2.73069 -182.615
lowerback -3.3159 -1.362 -3.26261
upperback -3.12665 -1.88502 0.468308
thorax -1.23746 -0.941052 2.26739
lowerneck -22.044 -0.375176 -1.12544
upperneck 21.6785 -0.00561272 0.512243
head 10.6146 0.0688317 0.38888
rclavicle -1.83627e-014 -7.15625e-015
rhumerus -10.0254 -24.2043 -88.1173
rradius 15.0849
rwrist -15.9143
rhand -16.6961 15.312
rfingers 7.12502
rthumb 9.52856 -14.4525
lclavicle -1.83627e-014 -7.15625e-015
lhumerus -5.92129 -12.9726 101.723
lradius 19.2901
lwrist -24.0264
lhand -12.6346 20.8337
lfingers 7.12502
lthumb 13.4454 50.3797
rfemur -75.3513 -3.95781 22.7418
rtibia 47.7504
rfoot 13.8119 -20.3792
rtoes 37.5947
lfemur -6.57016 -3.12063 -31.2638
ltibia 34.6973
lfoot -35.9289 23.1115
ltoes -34.1998
